<svg id="Слой_2" data-name="Слой 2" xmlns="http://www.w3.org/2000/svg" viewBox="0 0 834.81 191.03"><defs><style>.cls-1{fill:#ec0127;}</style></defs><title>Kronapay web</title><polygon class="cls-1" points="293.41 43.34 274.03 43.34 244.45 75.22 244.45 43.34 228.41 43.34 228.41 116.27 244.45 116.27 244.45 93.97 252.89 85.22 275.49 116.27 294.76 116.27 263.72 74.28 293.41 43.34"/><path class="cls-1" d="M347.58,90.22a25,25,0,0,0,11.3-8.17q4.33-5.58,4.33-14.43v-.21q0-11.35-7.24-17.71t-20.26-6.36H302.37v72.93h16V92.93H331l15.62,23.34H365.4ZM347,68.45a9.5,9.5,0,0,1-3.18,7.5c-2.12,1.88-5.16,2.81-9.12,2.81H318.41V57.82h15.94q5.94,0,9.27,2.61c2.22,1.74,3.34,4.34,3.34,7.81Z" transform="translate(0 0)"/><path class="cls-1" d="M449.88,79.6A37.43,37.43,0,0,0,447,65a36,36,0,0,0-8-11.88,38.73,38.73,0,0,0-12.25-8,42.17,42.17,0,0,0-31.09,0,37.29,37.29,0,0,0-20.37,20.11,36.94,36.94,0,0,0-2.92,14.64V80a37.44,37.44,0,0,0,2.87,14.64,35.88,35.88,0,0,0,8,11.88,38.63,38.63,0,0,0,12.24,8,39.75,39.75,0,0,0,15.52,3,40.16,40.16,0,0,0,15.58-3A37.31,37.31,0,0,0,447,94.44a36.75,36.75,0,0,0,2.92-14.63ZM433.11,80a23.86,23.86,0,0,1-1.62,8.81A23.07,23.07,0,0,1,427,96.06a20.22,20.22,0,0,1-6.92,4.89,21.77,21.77,0,0,1-8.86,1.77,21.25,21.25,0,0,1-8.91-1.82,22,22,0,0,1-11.56-12.24,24.22,24.22,0,0,1-1.61-8.85V79.6a23.85,23.85,0,0,1,1.61-8.81,23.25,23.25,0,0,1,4.48-7.24,20.35,20.35,0,0,1,6.88-4.89,21.79,21.79,0,0,1,8.9-1.77,21.47,21.47,0,0,1,8.86,1.82,22.14,22.14,0,0,1,7,4.95A21.83,21.83,0,0,1,431.49,71a24.24,24.24,0,0,1,1.62,8.86Z" transform="translate(0 0)"/><polygon class="cls-1" points="526.87 116.27 526.87 43.34 511.03 43.34 511.03 88.24 476.86 43.34 462.07 43.34 462.07 116.27 477.9 116.27 477.9 69.91 513.22 116.27 526.87 116.27"/><path class="cls-1" d="M559.05,99.91h30.84l6.67,16.36h16.77L582.08,42.82H567.29L536,116.27h16.36ZM574.47,62.1l9.69,23.64H564.79Z" transform="translate(0 0)"/><path class="cls-1" d="M672.76,50.32A24.73,24.73,0,0,0,664,45.17a34.91,34.91,0,0,0-11.72-1.83H622.5v72.93h16V94.39h12.19a40,40,0,0,0,11.51-1.61,27.32,27.32,0,0,0,9.38-4.85,22.82,22.82,0,0,0,6.3-8,25.52,25.52,0,0,0,2.29-11.15v-.21a26.38,26.38,0,0,0-1.93-10.26A22.48,22.48,0,0,0,672.76,50.32ZM664,69.08a10.43,10.43,0,0,1-3.33,7.86q-3.35,3.18-9.38,3.18H638.54V57.82h12.4q6,0,9.53,2.82c2.33,1.87,3.49,4.62,3.49,8.23Z" transform="translate(0 0)"/><path class="cls-1" d="M715,42.82l-31.25,73.45h16.36l6.66-16.36h30.84l6.67,16.36h16.77L729.8,42.82Zm-2.5,42.92,9.69-23.64,9.69,23.64Z" transform="translate(0 0)"/><polygon class="cls-1" points="816.57 43.34 798.86 72.62 781.47 43.34 762.72 43.34 790.74 87.52 790.74 116.27 806.78 116.27 806.78 87.2 834.81 43.34 816.57 43.34"/><polygon class="cls-1" points="240.2 148.74 233.34 137.7 227.16 137.7 227.16 163.8 232.82 163.8 232.82 146.87 240.09 157.91 240.24 157.91 247.58 146.76 247.58 163.8 253.25 163.8 253.25 137.7 247.06 137.7 240.2 148.74"/><path class="cls-1" d="M284.06,141.19a13.76,13.76,0,0,0-4.38-2.87,15.14,15.14,0,0,0-11.13,0,13.38,13.38,0,0,0-7.29,7.19,13.32,13.32,0,0,0-1,5.24v.08a13.43,13.43,0,0,0,1,5.23,12.87,12.87,0,0,0,2.87,4.25,13.76,13.76,0,0,0,4.38,2.87,15.14,15.14,0,0,0,11.13,0,13.38,13.38,0,0,0,7.29-7.19,13.32,13.32,0,0,0,1-5.24v-.07a13.45,13.45,0,0,0-1-5.24A12.87,12.87,0,0,0,284.06,141.19ZM282,150.83a8.42,8.42,0,0,1-.58,3.14,8.22,8.22,0,0,1-1.6,2.6,7.38,7.38,0,0,1-2.48,1.75,7.87,7.87,0,0,1-3.17.63,7.63,7.63,0,0,1-3.18-.65,8.11,8.11,0,0,1-2.5-1.77,7.86,7.86,0,0,1-1.64-2.61,8.58,8.58,0,0,1-.58-3.17v-.07a8.44,8.44,0,0,1,.58-3.15,8.22,8.22,0,0,1,1.6-2.6,7.4,7.4,0,0,1,2.46-1.75,7.86,7.86,0,0,1,3.19-.63,7.75,7.75,0,0,1,3.17.65,8,8,0,0,1,2.51,1.77,7.86,7.86,0,0,1,1.64,2.61,8.62,8.62,0,0,1,.58,3.17Z" transform="translate(0 0)"/><polygon class="cls-1" points="312.44 153.77 300.22 137.7 294.92 137.7 294.92 163.8 300.59 163.8 300.59 147.21 313.23 163.8 318.11 163.8 318.11 137.7 312.44 137.7 312.44 153.77"/><polygon class="cls-1" points="331.9 153.21 344.2 153.21 344.2 148.1 331.9 148.1 331.9 142.81 345.88 142.81 345.88 137.7 326.24 137.7 326.24 163.8 346.07 163.8 346.07 158.69 331.9 158.69 331.9 153.21"/><polygon class="cls-1" points="363.32 148.18 357.1 137.7 350.39 137.7 360.42 153.51 360.42 163.8 366.16 163.8 366.16 153.4 376.19 137.7 369.66 137.7 363.32 148.18"/><polygon class="cls-1" points="400.34 153.21 412.64 153.21 412.64 148.1 400.34 148.1 400.34 142.81 414.32 142.81 414.32 137.7 394.67 137.7 394.67 163.8 414.5 163.8 414.5 158.69 400.34 158.69 400.34 153.21"/><polygon class="cls-1" points="444.14 137.7 437.62 137.7 432.1 146.16 426.62 137.7 419.91 137.7 428.63 150.53 419.54 163.8 426.06 163.8 431.95 154.85 437.8 163.8 444.51 163.8 435.42 150.45 444.14 137.7"/><path class="cls-1" d="M466.86,158.13a7.94,7.94,0,0,1-3.78.82,7.26,7.26,0,0,1-3.08-.65,7.41,7.41,0,0,1-2.39-1.77,8.5,8.5,0,0,1-1.54-2.61,8.78,8.78,0,0,1-.56-3.17v-.07a8.63,8.63,0,0,1,.56-3.15,8.12,8.12,0,0,1,1.56-2.6,7.4,7.4,0,0,1,2.41-1.75,7.29,7.29,0,0,1,3-.63,8,8,0,0,1,3.56.78,14.21,14.21,0,0,1,3.11,2.16l3.65-4.21a16.16,16.16,0,0,0-1.94-1.64,11.64,11.64,0,0,0-2.27-1.27,13.78,13.78,0,0,0-2.74-.81,17.21,17.21,0,0,0-3.34-.3,13.88,13.88,0,0,0-5.51,1.06,12.93,12.93,0,0,0-4.29,2.91,13.46,13.46,0,0,0-3.8,9.52v.08a13.74,13.74,0,0,0,1,5.25,13.08,13.08,0,0,0,2.8,4.27,12.91,12.91,0,0,0,4.25,2.85,13.44,13.44,0,0,0,5.33,1,17.07,17.07,0,0,0,3.43-.31,12.09,12.09,0,0,0,5.18-2.41,18.74,18.74,0,0,0,2.09-1.93l-3.66-3.7A14.31,14.31,0,0,1,466.86,158.13Z" transform="translate(0 0)"/><polygon class="cls-1" points="496.36 148.03 485.78 148.03 485.78 137.7 480.04 137.7 480.04 163.8 485.78 163.8 485.78 153.32 496.36 153.32 496.36 163.8 502.1 163.8 502.1 137.7 496.36 137.7 496.36 148.03"/><path class="cls-1" d="M519.18,137.52,508,163.8h5.86l2.38-5.86h11l2.38,5.86h6l-11.18-26.28Zm-.9,15.36,3.47-8.47,3.47,8.47Z" transform="translate(0 0)"/><polygon class="cls-1" points="559.06 153.77 546.84 137.7 541.54 137.7 541.54 163.8 547.21 163.8 547.21 147.21 559.85 163.8 564.73 163.8 564.73 137.7 559.06 137.7 559.06 153.77"/><path class="cls-1" d="M585.23,153.73H591v3.76a9.06,9.06,0,0,1-5.41,1.57,7.94,7.94,0,0,1-3.18-.61,7.41,7.41,0,0,1-2.5-1.74,7.84,7.84,0,0,1-1.64-2.63,9.1,9.1,0,0,1-.58-3.31v-.08a8.44,8.44,0,0,1,.58-3.15,7.93,7.93,0,0,1,4-4.34,6.71,6.71,0,0,1,2.92-.65,10,10,0,0,1,2,.19,8.59,8.59,0,0,1,1.74.52,9.5,9.5,0,0,1,1.54.82A12.34,12.34,0,0,1,592,145.2l3.62-4.36a15.72,15.72,0,0,0-2.09-1.53,12.33,12.33,0,0,0-2.31-1.12,15,15,0,0,0-2.66-.69,19.45,19.45,0,0,0-3.19-.24,13.8,13.8,0,0,0-5.48,1.06,13.37,13.37,0,0,0-4.32,2.91,13.3,13.3,0,0,0-3.88,9.52v.08a14.05,14.05,0,0,0,1,5.36,12.51,12.51,0,0,0,2.81,4.25,12.84,12.84,0,0,0,4.32,2.8,14.94,14.94,0,0,0,5.58,1,15.7,15.7,0,0,0,6.35-1.21,19,19,0,0,0,4.79-2.92V148.77H585.23Z" transform="translate(0 0)"/><polygon class="cls-1" points="609.61 153.21 621.91 153.21 621.91 148.1 609.61 148.1 609.61 142.81 623.59 142.81 623.59 137.7 603.94 137.7 603.94 163.8 623.77 163.8 623.77 158.69 609.61 158.69 609.61 153.21"/><rect class="cls-1" x="85.01" y="72.98" width="39.12" height="8.16" rx="1.24"/><path class="cls-1" d="M86.94,46.24A3,3,0,0,0,88,43.91,3.06,3.06,0,1,0,85,47V67.69a1.38,1.38,0,0,0,1.38,1.38h36.42a1.38,1.38,0,0,0,1.38-1.38V47a3.11,3.11,0,1,0-2-.73c-.54.53-1.2,1-1.7,1.41l-5.67,4.47a2.51,2.51,0,0,1-3.55-.44l-5.46-6.83a3.07,3.07,0,1,0-2.49,0l-5.47,6.83a2.51,2.51,0,0,1-3.55.44l-5.67-4.47C88.14,47.24,87.48,46.77,86.94,46.24Z" transform="translate(0 0)"/><path class="cls-1" d="M125.35,136.78a16.45,16.45,0,0,0,1.72-7.82,15.41,15.41,0,0,0-1.28-6.62,13.36,13.36,0,0,0-3.65-4.61,20.84,20.84,0,0,0-5.78-3.21c-2.27-.85-4.8-1.66-7.58-2.41-2.14-.53-4-1-5.66-1.52a20.44,20.44,0,0,1-4.05-1.6,7.21,7.21,0,0,1-2.44-2,4.86,4.86,0,0,1-.85-2.93A5.56,5.56,0,0,1,98,99.28q2.25-1.68,6.82-1.68a20,20,0,0,1,5.05.64,32.07,32.07,0,0,1,4.62,1.56,24.93,24.93,0,0,1,3.61,1.89,14.07,14.07,0,0,1,2,1.52l4.89-9a40.85,40.85,0,0,0-8.82-4.46,29.92,29.92,0,0,0-7.06-1.63v-6.4H100v6.63a24.34,24.34,0,0,0-2.89.68,20.17,20.17,0,0,0-6.62,3.41A15.55,15.55,0,0,0,86,98.08a17.67,17.67,0,0,0-1.61,7.7,14.37,14.37,0,0,0,1,5.65,11.75,11.75,0,0,0,3,4.18,18.69,18.69,0,0,0,5,3.12,50.62,50.62,0,0,0,7.1,2.45l6.09,1.76a29.32,29.32,0,0,1,4.66,1.77,8.72,8.72,0,0,1,3,2.25,4.77,4.77,0,0,1,1,3.12q0,5.86-9.15,5.86a25.88,25.88,0,0,1-6.41-.8,34.57,34.57,0,0,1-5.7-2,39.37,39.37,0,0,1-4.45-2.32A15.61,15.61,0,0,1,87,129l-4.89,9.55A39.05,39.05,0,0,0,93.3,144a43.45,43.45,0,0,0,6.66,1.49V152h9.22v-6.33A33.63,33.63,0,0,0,114,145a20.26,20.26,0,0,0,6.74-2.93A14.54,14.54,0,0,0,125.35,136.78Z" transform="translate(0 0)"/><path class="cls-1" d="M36.85,117.09l-.13-.37.16.08.71.35,1.18.6,4.35,2.16,6.66,3.34-7.56-11.08-5.34-7.82-12-17.46L19,95.52h0L10.48,107.9l-.35.52-.08.11-.06.09h0l-.11.16-2.8,4.11L0,123.25l7.69-3.86,3.3-1.64.63-.31h0A95.51,95.51,0,0,0,104.47,191V166.64A71.21,71.21,0,0,1,36.85,117.09Z" transform="translate(0 0)"/><circle class="cls-1" cx="183.5" cy="122.66" r="8.9"/><circle class="cls-1" cx="163.11" cy="154.47" r="10.31" transform="translate(-31.13 41.61) rotate(-13.28)"/><circle class="cls-1" cx="130.49" cy="174.34" r="11.79" transform="translate(-36.56 34.64) rotate(-13.28)"/><circle class="cls-1" cx="26.9" cy="68.38" r="8.9" transform="translate(-46.57 67.06) rotate(-67.5)"/><circle class="cls-1" cx="47.29" cy="36.57" r="10.31"/><circle class="cls-1" cx="79.91" cy="16.69" r="11.79" transform="translate(-1.64 13.02) rotate(-9.22)"/><path class="cls-1" d="M198.22,73.28l-.38.19-.31.16A95.49,95.49,0,0,0,104.76,0V24.39A71.21,71.21,0,0,1,172.29,73.9l.12.38-.78-.4,0,0-.66-.33-.48-.25-4.33-2.16-6.68-3.34L167,78.86l5.35,7.82,1.27,1.85.14.18v0l1.1,1.6.6.87,1.41,2.07,1.44,2.08,6,8.79,6-8.79,8.81-12.86v0l.12-.19,0,0,2.82-4.11,7.07-10.35-7.69,3.86Z" transform="translate(0 0)"/></svg>